<?xml version="1.0" encoding="UTF-8"?>
<!DOCTYPE svg PUBLIC "-//W3C//DTD SVG 1.1//EN" "http://www.w3.org/Graphics/SVG/1.1/DTD/svg11.dtd">
<!-- Creator: CorelDRAW 2021 (64-Bit) -->
<svg xmlns="http://www.w3.org/2000/svg" xml:space="preserve" width="30.6316mm" height="26.416mm" version="1.1" style="shape-rendering:geometricPrecision; text-rendering:geometricPrecision; image-rendering:optimizeQuality; fill-rule:evenodd; clip-rule:evenodd"
viewBox="0 0 353.68 305.01"
 xmlns:xlink="http://www.w3.org/1999/xlink"
 xmlns:xodm="http://www.corel.com/coreldraw/odm/2003">
 <defs>
  <style type="text/css">
   <![CDATA[
    .fil0 {fill:black}
   ]]>
  </style>
 </defs>
 <g id="Layer_x0020_1">
  <metadata id="CorelCorpID_0Corel-Layer"/>
  <path class="fil0" d="M108.17 110.47c0,37.15 27.37,68.43 27.37,70.39l20.53 -17.6c0,-0.98 -6.84,-6.84 -12.71,-17.6 -6.84,-14.66 -13.69,-41.06 -1.95,-55.72 6.84,-8.8 21.51,-12.71 30.31,-4.89 30.74,27.49 -8,142.3 -77.23,148.59 -34.22,1.96 -62.57,-15.64 -68.43,-53.77 -6.84,-45.95 26.4,-104.6 26.4,-105.58l-24.44 -8.8c-21.51,50.83 -45.95,118.29 -8.8,165.21 25.42,32.26 85.05,38.13 117.31,16.62 23.46,-14.66 41.06,-31.28 53.77,-57.68 16.62,-32.26 27.37,-80.16 8.8,-113.4 -14.46,-24.97 -53.21,-30.16 -76.25,-5.87 -9.78,9.78 -14.66,25.42 -14.66,40.08z"/>
  <path class="fil0" d="M304.67 116.33c13.54,23.21 18.96,36.32 20.53,66.48 0.98,15.64 -0.98,37.15 -7.82,51.81 -24.29,50.27 -91.34,62.66 -99.71,4.89 -0.98,-6.84 -0.98,-16.62 0.98,-23.46l-15.64 -6.84c-0.98,2.93 -10.75,20.53 -12.71,24.44 -8.8,14.66 -17.6,24.44 -27.37,38.13 -11.04,14.89 -1.85,20.63 7.82,30.31l26.4 -39.1c3.91,7.82 5.87,12.71 10.75,19.55 13.69,15.64 32.26,22.48 52.79,22.48 18.57,0 39.1,-8.8 52.79,-20.53 24.44,-19.55 35.19,-45.95 39.1,-75.27 3.91,-28.35 -2.93,-65.5 -13.69,-90.92 -1.96,-6.84 -5.87,-12.71 -8.8,-19.55l-25.42 17.6z"/>
  <path class="fil0" d="M135.55 21.51c0,21.51 26.4,31.28 40.08,13.69 10.75,-13.69 0,-35.19 -17.6,-35.19 -12.71,0 -22.48,9.78 -22.48,21.51z"/>
 </g>
</svg>
